<svg xmlns="http://www.w3.org/2000/svg" width="1920" height="1080" viewBox="0 0 1920 1080" font-family='-apple-system, BlinkMacSystemFont, "Segoe UI", Roboto, sans-serif'><rect x="0" y="0" width="1920" height="1080" fill="#eaefef"/><rect x="100" y="64" width="56" height="5" fill="#0C7FAE" rx="2.5"/><g font-family='Charter, Georgia, "Times New Roman", serif'><text x="100" y="124" font-size="38" font-weight="700" fill="#222">Product roadmap</text></g><text x="1820" y="124" font-size="17" text-anchor="end" fill="#667">2026-07-04</text><text x="100" y="206" font-size="16" font-weight="700" letter-spacing="1.6" fill="#0C7FAE">NOW</text><text x="1160" y="206" font-size="13" font-weight="700" letter-spacing="1" text-anchor="end" fill="#b33">8 — OVER WIP 6</text><rect x="100" y="220" width="1060" height="622" fill="#0C7FAE0D" rx="16"/><rect x="122" y="242" width="499" height="125" fill="#fafcfd" rx="14" stroke="#bcd2d9" stroke-width="1"/><text x="568.6" y="272" font-size="11" font-weight="700" letter-spacing="1.2" fill="#667">CORE</text><text x="144" y="310" font-size="26" font-weight="700" fill="#222">Item number 0</text><text x="144" y="346" font-size="16" fill="#667">a short supporting note</text><rect x="639" y="242" width="499" height="125" fill="#fafcfd" rx="14" stroke="#bcd2d9" stroke-width="1"/><text x="1070.4" y="272" font-size="11" font-weight="700" letter-spacing="1.2" fill="#667">GROWTH</text><text x="661" y="310" font-size="26" font-weight="700" fill="#222">Item number 1</text><rect x="122" y="383" width="499" height="132" fill="#fafcfd" rx="14" stroke="#9A6A00" stroke-width="1.5"/><text x="538.2" y="413" font-size="11" font-weight="700" letter-spacing="1.2" fill="#667">PLATFORM</text><text x="144" y="451" font-size="26" font-weight="700" fill="#222">Item number 2</text><rect x="144" y="471" width="71.2" height="22" fill="#9A6A001F" rx="11"/><text x="153" y="486.5" font-size="12" font-weight="600" letter-spacing="0.6" fill="#8E6200">AT RISK</text><rect x="639" y="383" width="499" height="132" fill="#fafcfd" rx="14" stroke="#bcd2d9" stroke-width="1"/><text x="1085.6" y="413" font-size="11" font-weight="700" letter-spacing="1.2" fill="#667">CORE</text><text x="661" y="451" font-size="26" font-weight="700" fill="#222">Item number 3</text><text x="661" y="487" font-size="16" fill="#667">a short supporting note</text><rect x="122" y="531" width="499" height="132" fill="#fafcfd" rx="14" stroke="#bcd2d9" stroke-width="1"/><text x="553.4" y="561" font-size="11" font-weight="700" letter-spacing="1.2" fill="#667">GROWTH</text><text x="144" y="599" font-size="26" font-weight="700" fill="#222">Item number 4</text><rect x="639" y="531" width="499" height="132" fill="#fafcfd" rx="14" stroke="#B3403A" stroke-width="1.5"/><text x="1055.2" y="561" font-size="11" font-weight="700" letter-spacing="1.2" fill="#667">PLATFORM</text><text x="661" y="599" font-size="26" font-weight="700" fill="#222">Item number 5</text><rect x="661" y="619" width="71.2" height="22" fill="#B3403A1F" rx="11"/><text x="670" y="634.5" font-size="12" font-weight="600" letter-spacing="0.6" fill="#B3403A">BLOCKED</text><rect x="122" y="679" width="499" height="125" fill="#fafcfd" rx="14" stroke="#bcd2d9" stroke-width="1"/><text x="568.6" y="709" font-size="11" font-weight="700" letter-spacing="1.2" fill="#667">CORE</text><text x="144" y="747" font-size="26" font-weight="700" fill="#222">Item number 6</text><text x="144" y="783" font-size="16" fill="#667">a short supporting note</text><rect x="639" y="679" width="499" height="125" fill="#fafcfd" rx="14" stroke="#bcd2d9" stroke-width="1"/><text x="1070.4" y="709" font-size="11" font-weight="700" letter-spacing="1.2" fill="#667">GROWTH</text><text x="661" y="747" font-size="26" font-weight="700" fill="#222">Item number 7</text><text x="1220" y="198" font-size="13" font-weight="700" letter-spacing="1.4" fill="#667">NEXT</text><line x1="1220" y1="206" x2="1820" y2="206" stroke="#bcd2d9" stroke-width="1" opacity="0.6"/><g opacity="0.82"><text x="1220" y="240" font-size="15" font-weight="700" fill="#667">01</text><text x="1254" y="240" font-size="15" fill="#222">Next horizon item one</text><text x="1820" y="238" font-size="10" font-weight="700" letter-spacing="1" text-anchor="end" fill="#667">CORE</text></g><g opacity="0.82"><text x="1220" y="278" font-size="15" font-weight="700" fill="#667">02</text><text x="1254" y="278" font-size="15" fill="#222">Next horizon item two</text><text x="1820" y="276" font-size="10" font-weight="700" letter-spacing="1" text-anchor="end" fill="#667">GROWTH</text></g><text x="1220" y="308" font-size="13" font-weight="700" letter-spacing="1.4" fill="#667">LATER</text><line x1="1220" y1="316" x2="1820" y2="316" stroke="#bcd2d9" stroke-width="1" opacity="0.6"/><g opacity="0.65"><text x="1220" y="350" font-size="15" font-weight="700" fill="#667">03</text><text x="1254" y="350" font-size="15" fill="#222">Later horizon item</text><text x="1820" y="348" font-size="10" font-weight="700" letter-spacing="1" text-anchor="end" fill="#667">CORE</text></g><line x1="100" y1="1002" x2="1820" y2="1002" stroke="#bcd2d9" stroke-width="1" opacity="1"/><text x="100" y="1036" font-size="17" font-weight="600" fill="#667">11 items · 3 horizons · 1 at risk · 1 blocked</text></svg>