<svg xmlns="http://www.w3.org/2000/svg" width="844" height="362" viewBox="0 0 844 362" font-family="-apple-system,BlinkMacSystemFont,'Segoe UI',Roboto,sans-serif" role="img" aria-label="What drives the answer: No single input dominates — the spread is shared across the drivers."><rect width="844" height="362" fill="#fff"/><text x="28" y="32" font-size="10" font-weight="600" letter-spacing="1" fill="#667">WHAT DRIVES THE ANSWER</text><text x="28" y="52" font-size="13" fill="#222">No single input dominates — the spread is shared across the drivers.</text><path data-edge="households" d="M166,91 C223.5,91 223.5,118 281,118" fill="none" stroke="#667" stroke-width="1.28"/><text x="223.5" y="98.5" font-size="10.5" font-weight="600" text-anchor="middle" fill="#667">1%</text><path data-edge="share_with_piano" d="M166,145 C223.5,145 223.5,118 281,118" fill="none" stroke="#08c" stroke-width="1.99"/><text x="223.5" y="125.5" font-size="10.5" font-weight="700" text-anchor="middle" fill="#08c">23%</text><path d="M307,118 C358,118 358,158.5 409,158.5" fill="none" stroke="#ddd" stroke-width="2.02" stroke-opacity="0.9"/><path data-edge="tunings_per_year" d="M166,199 C287.5,199 287.5,158.5 409,158.5" fill="none" stroke="#667" stroke-width="1.99"/><text x="287.5" y="172.75" font-size="10.5" font-weight="600" text-anchor="middle" fill="#667">23%</text><path data-edge="tunings_per_day" d="M166,253 C287.5,253 287.5,280 409,280" fill="none" stroke="#667" stroke-width="1.57"/><text x="287.5" y="260.5" font-size="10.5" font-weight="600" text-anchor="middle" fill="#667">10%</text><path data-edge="working_days" d="M166,307 C287.5,307 287.5,280 409,280" fill="none" stroke="#667" stroke-width="1.29"/><text x="287.5" y="287.5" font-size="10.5" font-weight="600" text-anchor="middle" fill="#667">1%</text><path d="M435,158.5 C486,158.5 486,219.25 537,219.25" fill="none" stroke="#ddd" stroke-width="2.76" stroke-opacity="0.9"/><path d="M435,280 C486,280 486,219.25 537,219.25" fill="none" stroke="#ddd" stroke-width="1.61" stroke-opacity="0.9"/><path d="M563,219.25 L580,219.25" stroke="#667" stroke-width="3" fill="none"/><rect data-node="var" data-name="households" x="28" y="71" width="138" height="40" rx="20" fill="#fff" stroke="#ddd"/><text x="41" y="88" font-size="12" font-weight="600" font-family="ui-monospace,'SF Mono',Menlo,Consolas,monospace" fill="#222">households</text><text x="41" y="103" font-size="11" fill="#667">3M – 4M</text><rect data-node="var" data-name="share_with_piano" x="28" y="125" width="138" height="40" rx="20" fill="none" stroke="#08c"/><text x="41" y="142" font-size="12" font-weight="600" font-family="ui-monospace,'SF Mono',Menlo,Consolas,monospace" fill="#222">share_with_piano</text><text x="41" y="157" font-size="11" fill="#667">0.02 – 0.08</text><circle data-node="op" cx="294" cy="118" r="13" fill="#fff" stroke="#ddd" stroke-width="1.5"/><text x="294" y="123" font-size="14" font-weight="600" text-anchor="middle" fill="#222">×</text><rect data-node="var" data-name="tunings_per_year" x="28" y="179" width="138" height="40" rx="20" fill="#fff" stroke="#ddd"/><text x="41" y="196" font-size="12" font-weight="600" font-family="ui-monospace,'SF Mono',Menlo,Consolas,monospace" fill="#222">tunings_per_year</text><text x="41" y="211" font-size="11" fill="#667">0.5 – 2</text><circle data-node="op" cx="422" cy="158.5" r="13" fill="#fff" stroke="#ddd" stroke-width="1.5"/><text x="422" y="163.5" font-size="14" font-weight="600" text-anchor="middle" fill="#222">×</text><rect data-node="var" data-name="tunings_per_day" x="28" y="233" width="138" height="40" rx="20" fill="#fff" stroke="#ddd"/><text x="41" y="250" font-size="12" font-weight="600" font-family="ui-monospace,'SF Mono',Menlo,Consolas,monospace" fill="#222">tunings_per_day</text><text x="41" y="265" font-size="11" fill="#667">2 – 5</text><rect data-node="var" data-name="working_days" x="28" y="287" width="138" height="40" rx="20" fill="#fff" stroke="#ddd"/><text x="41" y="304" font-size="12" font-weight="600" font-family="ui-monospace,'SF Mono',Menlo,Consolas,monospace" fill="#222">working_days</text><text x="41" y="319" font-size="11" fill="#667">220 – 260</text><circle data-node="op" cx="422" cy="280" r="13" fill="#fff" stroke="#ddd" stroke-width="1.5"/><text x="422" y="285" font-size="14" font-weight="600" text-anchor="middle" fill="#222">×</text><circle data-node="op" cx="550" cy="219.25" r="13" fill="#fff" stroke="#ddd" stroke-width="1.5"/><text x="550" y="224.25" font-size="14" font-weight="600" text-anchor="middle" fill="#222">÷</text><rect data-node="out" x="580" y="171.25" width="236" height="96" rx="10" fill="none" stroke="#08c"/><text x="596" y="193.25" font-size="9.5" font-weight="600" letter-spacing="1" fill="#667">THE ANSWER</text><text x="596" y="217.25" font-size="21" font-weight="700" fill="#222">185</text><text x="596" y="235.25" font-size="11.5" fill="#222">P10 77.8  ·  P90 433</text><text x="596" y="253.25" font-size="11" fill="#667">spread ×5.6 (P90 ÷ P10)</text></svg>