<svg xmlns="http://www.w3.org/2000/svg" width="1218" height="396" viewBox="0 0 1218 396" font-family='-apple-system, BlinkMacSystemFont, "Segoe UI", Roboto, sans-serif'><rect width="1218" height="396" fill="#f7f8f6"/><text x="35.1" y="51.300000000000004" font-family='Charter, Georgia, "Times New Roman", serif' font-size="29.700000000000003" font-weight="700" fill="#222">T</text><text x="1182.9" y="51.300000000000004" text-anchor="end" font-size="14.850000000000001" fill="#667">2026-07-04</text><text x="194.4" y="97.20000000000002" font-size="14.850000000000001" font-weight="600" letter-spacing="1.2" fill="#667">NOW</text><line x1="194.4" y1="106.65" x2="513" y2="106.65" stroke="#ddd" stroke-width="1"/><text x="529.2" y="97.20000000000002" font-size="14.850000000000001" font-weight="600" letter-spacing="1.2" fill="#667">NEXT</text><line x1="529.2" y1="106.65" x2="847.8000000000001" y2="106.65" stroke="#ddd" stroke-width="1"/><text x="864" y="97.20000000000002" font-size="14.850000000000001" font-weight="600" letter-spacing="1.2" fill="#667">LATER</text><line x1="864" y1="106.65" x2="1182.6" y2="106.65" stroke="#ddd" stroke-width="1"/><text x="35.1" y="145.8" font-size="16.200000000000003" font-weight="600" fill="#667">Core</text><g data-line="3" opacity="1.00"><rect x="194.4" y="126.9" width="318.6" height="95.85000000000001" rx="6" fill="#fff" stroke="#ddd" stroke-width="1"/><text x="210.60000000000002" y="156.60000000000002" font-size="17.55" font-weight="600" fill="#222">Streak freeze</text><text x="210.60000000000002" y="176.85000000000002" font-size="15.525" fill="#667">note here</text><circle cx="216.00000000000003" cy="201.15" r="5.4" fill="#0C7FAE"/><text x="228.15000000000003" y="206.55" font-size="14.175" font-weight="600" letter-spacing="0.3" fill="#0C7FAE">IN PROGRESS</text></g><g data-line="6" opacity="0.82"><rect x="529.2" y="126.9" width="318.6" height="49.95" rx="6" fill="#fff" stroke="#ddd" stroke-width="1"/><text x="545.4000000000001" y="156.60000000000002" font-size="17.55" font-weight="600" fill="#222">Smart reminders</text></g><line x1="35.1" y1="233.55" x2="1182.9" y2="233.55" stroke="#ddd" stroke-width="1" stroke-dasharray="2 4"/><text x="35.1" y="265.95000000000005" font-size="16.200000000000003" font-weight="600" fill="#667">Growth</text><g data-line="4" opacity="1.00"><rect x="194.4" y="247.05" width="318.6" height="75.60000000000001" rx="6" fill="#fff" stroke="#ddd" stroke-width="1"/><text x="210.60000000000002" y="276.75" font-size="17.55" font-weight="600" fill="#222">Referral flow</text><circle cx="216.00000000000003" cy="301.05" r="5.4" fill="#9A6A00"/><text x="228.15000000000003" y="306.45" font-size="14.175" font-weight="600" letter-spacing="0.3" fill="#9A6A00">AT RISK</text></g><g data-line="8" opacity="0.65"><rect x="864" y="247.05" width="318.6" height="75.60000000000001" rx="6" fill="#fff" stroke="#ddd" stroke-width="1"/><text x="880.2" y="276.75" font-size="17.55" font-weight="600" fill="#222">Coach marketplace</text><circle cx="885.6" cy="301.05" r="5.4" fill="#1D7A3E"/><text x="897.75" y="306.45" font-size="14.175" font-weight="600" letter-spacing="0.3" fill="#1D7A3E">DONE</text></g><circle cx="40.5" cy="360.45000000000005" r="5.4" fill="#1D7A3E"/><text x="52.650000000000006" y="365.85" font-size="14.850000000000001" fill="#667">Done</text><circle cx="115.75" cy="360.45000000000005" r="5.4" fill="#0C7FAE"/><text x="127.89999999999999" y="365.85" font-size="14.850000000000001" fill="#667">In progress</text><circle cx="240" cy="360.45000000000005" r="5.4" fill="#9A6A00"/><text x="252.15" y="365.85" font-size="14.850000000000001" fill="#667">At risk</text></svg>