<svg xmlns="http://www.w3.org/2000/svg" width="1644" height="302" viewBox="0 0 1644 302" font-family='-apple-system, BlinkMacSystemFont, "Segoe UI", Roboto, sans-serif'><rect width="1644" height="302" fill="#eaefef"/><text x="35.1" y="51.300000000000004" font-family='Charter, Georgia, "Times New Roman", serif' font-size="29.700000000000003" font-weight="700" fill="#222">Q</text><text x="1608.9" y="51.300000000000004" text-anchor="end" font-size="14.850000000000001" fill="#667">2026-07-04</text><text x="194.4" y="97.20000000000002" font-size="14.850000000000001" font-weight="600" letter-spacing="1.6" fill="#667">Q3 2026</text><rect x="194.4" y="105.30000000000001" width="29.700000000000003" height="4.050000000000001" rx="2.0250000000000004" fill="#0C7FAE"/><text x="480.6" y="97.20000000000002" font-size="14.850000000000001" font-weight="600" letter-spacing="1.6" fill="#667">Q4 2026</text><rect x="480.6" y="105.30000000000001" width="29.700000000000003" height="4.050000000000001" rx="2.0250000000000004" fill="#0C7FAE"/><text x="766.8" y="97.20000000000002" font-size="14.850000000000001" font-weight="600" letter-spacing="1.6" fill="#667">Q1 2027</text><rect x="766.8" y="105.30000000000001" width="29.700000000000003" height="4.050000000000001" rx="2.0250000000000004" fill="#0C7FAE"/><text x="1053" y="97.20000000000002" font-size="14.850000000000001" font-weight="600" letter-spacing="1.6" fill="#667">Q2 2027</text><rect x="1053" y="105.30000000000001" width="29.700000000000003" height="4.050000000000001" rx="2.0250000000000004" fill="#0C7FAE"/><text x="1339.2" y="97.20000000000002" font-size="14.850000000000001" font-weight="600" letter-spacing="1.6" fill="#667">Q3 2027</text><rect x="1339.2" y="105.30000000000001" width="29.700000000000003" height="4.050000000000001" rx="2.0250000000000004" fill="#0C7FAE"/><text x="35.1" y="145.8" font-size="14.850000000000001" font-weight="600" letter-spacing="1.2" fill="#667">A</text><rect data-cell="0|A" x="194.4" y="118.80000000000001" width="270" height="76.94999999999999" fill="transparent"/><g data-edit="cardmenu" data-line="6" opacity="1.00"><rect data-hit="" x="194.4" y="126.9" width="270" height="52.650000000000006" rx="8" fill="#fafcfd" stroke="#bcd2d9" stroke-width="1"/><text data-edit="title" data-line="6" data-raw="one" x="210.60000000000002" y="157.95" font-size="17.55" font-weight="600" fill="#222">one</text></g><rect data-cell="1|A" x="480.6" y="118.80000000000001" width="270" height="76.94999999999999" fill="transparent"/><rect data-cell="2|A" x="766.8" y="118.80000000000001" width="270" height="76.94999999999999" fill="transparent"/><rect data-cell="3|A" x="1053" y="118.80000000000001" width="270" height="76.94999999999999" fill="transparent"/><rect data-cell="4|A" x="1339.2" y="118.80000000000001" width="270" height="76.94999999999999" fill="transparent"/><line x1="35.1" y1="190.35" x2="1608.9" y2="190.35" stroke="#bcd2d9" stroke-width="1" opacity="0.55"/><text x="35.1" y="222.75" font-size="14.850000000000001" font-weight="600" letter-spacing="1.2" fill="#667">B</text><rect data-cell="0|B" x="194.4" y="195.75" width="270" height="76.94999999999999" fill="transparent"/><rect data-cell="1|B" x="480.6" y="195.75" width="270" height="76.94999999999999" fill="transparent"/><rect data-cell="2|B" x="766.8" y="195.75" width="270" height="76.94999999999999" fill="transparent"/><g data-edit="cardmenu" data-line="8" opacity="1.00"><rect data-hit="" x="766.8" y="203.85" width="270" height="52.650000000000006" rx="8" fill="#fafcfd" stroke="#bcd2d9" stroke-width="1"/><text data-edit="title" data-line="8" data-raw="two" x="783" y="234.89999999999998" font-size="17.55" font-weight="600" fill="#222">two</text></g><rect data-cell="3|B" x="1053" y="195.75" width="270" height="76.94999999999999" fill="transparent"/><rect data-cell="4|B" x="1339.2" y="195.75" width="270" height="76.94999999999999" fill="transparent"/></svg>