<svg xmlns="http://www.w3.org/2000/svg" width="1218" height="224" viewBox="0 0 1218 224" font-family='-apple-system, BlinkMacSystemFont, "Segoe UI", Roboto, sans-serif'><rect width="1218" height="224" fill="#eaefef"/><text x="26" y="38" font-family='Charter, Georgia, "Times New Roman", serif' font-size="22" font-weight="700" fill="#222">Q</text><text x="1192" y="38" text-anchor="end" font-size="11" fill="#667">2026-07-04</text><text x="144" y="72" font-size="11" font-weight="600" letter-spacing="1.6" fill="#667">Q3 2026</text><rect x="144" y="78" width="22" height="3" rx="1.5" fill="#0C7FAE"/><text x="356" y="72" font-size="11" font-weight="600" letter-spacing="1.6" fill="#667">Q4 2026</text><rect x="356" y="78" width="22" height="3" rx="1.5" fill="#0C7FAE"/><text x="568" y="72" font-size="11" font-weight="600" letter-spacing="1.6" fill="#667">Q1 2027</text><rect x="568" y="78" width="22" height="3" rx="1.5" fill="#0C7FAE"/><text x="780" y="72" font-size="11" font-weight="600" letter-spacing="1.6" fill="#667">Q2 2027</text><rect x="780" y="78" width="22" height="3" rx="1.5" fill="#0C7FAE"/><text x="992" y="72" font-size="11" font-weight="600" letter-spacing="1.6" fill="#667">Q3 2027</text><rect x="992" y="78" width="22" height="3" rx="1.5" fill="#0C7FAE"/><text x="26" y="108" font-size="11" font-weight="600" letter-spacing="1.2" fill="#667">A</text><rect data-cell="0|A" x="144" y="88" width="200" height="57" fill="transparent"/><g data-line="6" opacity="1.00"><rect x="144" y="94" width="200" height="39" rx="8" fill="#fafcfd" stroke="#bcd2d9" stroke-width="1"/><text data-edit="title" data-line="6" data-raw="one" x="156" y="117" font-size="13" font-weight="600" fill="#222">one</text></g><rect data-cell="1|A" x="356" y="88" width="200" height="57" fill="transparent"/><rect data-cell="2|A" x="568" y="88" width="200" height="57" fill="transparent"/><rect data-cell="3|A" x="780" y="88" width="200" height="57" fill="transparent"/><rect data-cell="4|A" x="992" y="88" width="200" height="57" fill="transparent"/><line x1="26" y1="141" x2="1192" y2="141" stroke="#bcd2d9" stroke-width="1" opacity="0.55"/><text x="26" y="165" font-size="11" font-weight="600" letter-spacing="1.2" fill="#667">B</text><rect data-cell="0|B" x="144" y="145" width="200" height="57" fill="transparent"/><rect data-cell="1|B" x="356" y="145" width="200" height="57" fill="transparent"/><rect data-cell="2|B" x="568" y="145" width="200" height="57" fill="transparent"/><g data-line="8" opacity="1.00"><rect x="568" y="151" width="200" height="39" rx="8" fill="#fafcfd" stroke="#bcd2d9" stroke-width="1"/><text data-edit="title" data-line="8" data-raw="two" x="580" y="174" font-size="13" font-weight="600" fill="#222">two</text></g><rect data-cell="3|B" x="780" y="145" width="200" height="57" fill="transparent"/><rect data-cell="4|B" x="992" y="145" width="200" height="57" fill="transparent"/></svg>