<svg xmlns="http://www.w3.org/2000/svg" width="1088" height="308" viewBox="0 0 1088 308" font-family="-apple-system,BlinkMacSystemFont,'Segoe UI',Roboto,sans-serif" role="img" aria-label="Signal vs noise — quarter 5"><rect width="1088" height="308" fill="#f7f8f6"/><text x="22" y="30" font-size="15" font-weight="700" letter-spacing="0.5" fill="#222">SIGNAL vs NOISE</text><text x="22" y="50" font-size="11.5" fill="#667">Quarter 5 of 8 · features shipped · judge each new number</text><text x="1066" y="30" font-size="11.5" text-anchor="end" fill="#667">your calls: 3</text><rect x="22" y="70" width="340" height="96" rx="8" fill="#fff" stroke="#ddd"/><text x="33" y="90" font-size="13" font-weight="650" fill="#222">Ada</text><text x="351" y="90" font-size="15" font-weight="700" text-anchor="end" fill="#222">21</text><rect x="33" y="102.4" width="318" height="20.3" fill="#667" fill-opacity="0.12"/><polyline points="33,104.5 112.5,109.3 192,111 271.5,107.7 351,104.5" fill="none" stroke="#667" stroke-width="1.4"/><circle cx="33" cy="104.5" r="1.8" fill="#667"/><circle cx="112.5" cy="109.3" r="1.8" fill="#667"/><circle cx="192" cy="111" r="1.8" fill="#667"/><circle cx="271.5" cy="107.7" r="1.8" fill="#667"/><circle cx="351" cy="104.5" r="3.2" fill="#08c"/><g data-act="talk" data-person="0" data-quarter="4" role="button" tabindex="0"><rect x="33" y="144" width="156" height="16" rx="5" fill="#fff" stroke="#ddd"/><text x="111" y="155.4" font-size="9.5" font-weight="600" text-anchor="middle" fill="#667">talk to them</text></g><g data-act="leave" data-person="0" data-quarter="4" role="button" tabindex="0"><rect x="195" y="144" width="156" height="16" rx="5" fill="#fff" stroke="#ddd"/><text x="273" y="155.4" font-size="9.5" font-weight="600" text-anchor="middle" fill="#667">leave it</text></g><rect x="374" y="70" width="340" height="96" rx="8" fill="#fff" stroke="#ddd"/><text x="385" y="90" font-size="13" font-weight="650" fill="#222">Ben</text><text x="703" y="90" font-size="15" font-weight="700" text-anchor="end" fill="#222">6</text><rect x="385" y="102.4" width="318" height="20.3" fill="#667" fill-opacity="0.12"/><polyline points="385,106.1 464.5,109.3 544,114.2 623.5,114.2 703,128.8" fill="none" stroke="#667" stroke-width="1.4"/><circle cx="385" cy="106.1" r="1.8" fill="#667"/><circle cx="464.5" cy="109.3" r="1.8" fill="#667"/><circle cx="544" cy="114.2" r="1.8" fill="#667"/><circle cx="623.5" cy="114.2" r="1.8" fill="#667"/><circle cx="703" cy="128.8" r="3.2" fill="#08c"/><g data-act="talk" data-person="1" data-quarter="4" role="button" tabindex="0"><rect x="385" y="144" width="156" height="16" rx="5" fill="#fff" stroke="#ddd"/><text x="463" y="155.4" font-size="9.5" font-weight="600" text-anchor="middle" fill="#667">talk to them</text></g><g data-act="leave" data-person="1" data-quarter="4" role="button" tabindex="0"><rect x="547" y="144" width="156" height="16" rx="5" fill="#fff" stroke="#ddd"/><text x="625" y="155.4" font-size="9.5" font-weight="600" text-anchor="middle" fill="#667">leave it</text></g><rect x="726" y="70" width="340" height="96" rx="8" fill="#fff" stroke="#ddd"/><text x="737" y="90" font-size="13" font-weight="650" fill="#222">Cy</text><text x="1055" y="90" font-size="15" font-weight="700" text-anchor="end" fill="#222">16</text><rect x="737" y="102.4" width="318" height="20.3" fill="#667" fill-opacity="0.12"/><polyline points="737,114.2 816.5,109.3 896,111 975.5,114.2 1055,112.6" fill="none" stroke="#667" stroke-width="1.4"/><circle cx="737" cy="114.2" r="1.8" fill="#667"/><circle cx="816.5" cy="109.3" r="1.8" fill="#667"/><circle cx="896" cy="111" r="1.8" fill="#667"/><circle cx="975.5" cy="114.2" r="1.8" fill="#667"/><circle cx="1055" cy="112.6" r="3.2" fill="#08c"/><g data-act="talk" data-person="2" data-quarter="4" role="button" tabindex="0"><rect x="737" y="144" width="156" height="16" rx="5" fill="#fff" stroke="#ddd"/><text x="815" y="155.4" font-size="9.5" font-weight="600" text-anchor="middle" fill="#667">talk to them</text></g><g data-act="leave" data-person="2" data-quarter="4" role="button" tabindex="0"><rect x="899" y="144" width="156" height="16" rx="5" fill="#fff" stroke="#ddd"/><text x="977" y="155.4" font-size="9.5" font-weight="600" text-anchor="middle" fill="#667">leave it</text></g><rect x="22" y="178" width="340" height="96" rx="8" fill="#fff" stroke="#ddd"/><text x="33" y="198" font-size="13" font-weight="650" fill="#222">Dot</text><text x="351" y="198" font-size="15" font-weight="700" text-anchor="end" fill="#222">13</text><rect x="33" y="210.4" width="318" height="20.3" fill="#667" fill-opacity="0.12"/><polyline points="33,228.7 112.5,222.2 192,214.1 271.5,209.2 351,225.4" fill="none" stroke="#667" stroke-width="1.4"/><circle cx="33" cy="228.7" r="1.8" fill="#667"/><circle cx="112.5" cy="222.2" r="1.8" fill="#667"/><circle cx="192" cy="214.1" r="1.8" fill="#667"/><circle cx="271.5" cy="209.2" r="1.8" fill="#667"/><circle cx="351" cy="225.4" r="3.2" fill="#08c"/><g data-act="talk" data-person="3" data-quarter="4" role="button" tabindex="0"><rect x="33" y="252" width="156" height="16" rx="5" fill="#fff" stroke="#ddd"/><text x="111" y="263.4" font-size="9.5" font-weight="600" text-anchor="middle" fill="#667">talk to them</text></g><g data-act="leave" data-person="3" data-quarter="4" role="button" tabindex="0"><rect x="195" y="252" width="156" height="16" rx="5" fill="#fff" stroke="#ddd"/><text x="273" y="263.4" font-size="9.5" font-weight="600" text-anchor="middle" fill="#667">leave it</text></g><rect x="374" y="178" width="340" height="96" rx="8" fill="#fff" stroke="#ddd"/><text x="385" y="198" font-size="13" font-weight="650" fill="#222">Eve</text><text x="703" y="198" font-size="15" font-weight="700" text-anchor="end" fill="#222">12</text><rect x="385" y="210.4" width="318" height="20.3" fill="#667" fill-opacity="0.12"/><polyline points="385,220.6 464.5,219 544,222.2 623.5,230.3 703,227" fill="none" stroke="#667" stroke-width="1.4"/><circle cx="385" cy="220.6" r="1.8" fill="#667"/><circle cx="464.5" cy="219" r="1.8" fill="#667"/><circle cx="544" cy="222.2" r="1.8" fill="#667"/><circle cx="623.5" cy="230.3" r="1.8" fill="#667"/><circle cx="703" cy="227" r="3.2" fill="#08c"/><g data-act="talk" data-person="4" data-quarter="4" role="button" tabindex="0"><rect x="385" y="252" width="156" height="16" rx="5" fill="#fff" stroke="#ddd"/><text x="463" y="263.4" font-size="9.5" font-weight="600" text-anchor="middle" fill="#667">talk to them</text></g><g data-act="leave" data-person="4" data-quarter="4" role="button" tabindex="0"><rect x="547" y="252" width="156" height="16" rx="5" fill="#fff" stroke="#ddd"/><text x="625" y="263.4" font-size="9.5" font-weight="600" text-anchor="middle" fill="#667">leave it</text></g><rect x="726" y="178" width="340" height="96" rx="8" fill="#fff" stroke="#ddd"/><text x="737" y="198" font-size="13" font-weight="650" fill="#222">Fin</text><text x="1055" y="198" font-size="15" font-weight="700" text-anchor="end" fill="#222">9</text><rect x="737" y="210.4" width="318" height="20.3" fill="#667" fill-opacity="0.12"/><polyline points="737,215.7 816.5,214.1 896,217.3 975.5,220.6 1055,231.9" fill="none" stroke="#667" stroke-width="1.4"/><circle cx="737" cy="215.7" r="1.8" fill="#667"/><circle cx="816.5" cy="214.1" r="1.8" fill="#667"/><circle cx="896" cy="217.3" r="1.8" fill="#667"/><circle cx="975.5" cy="220.6" r="1.8" fill="#667"/><circle cx="1055" cy="231.9" r="3.2" fill="#08c"/><g data-act="talk" data-person="5" data-quarter="4" role="button" tabindex="0"><rect x="737" y="252" width="156" height="16" rx="5" fill="#b33" stroke="#b33"/><text x="815" y="263.4" font-size="9.5" font-weight="600" text-anchor="middle" fill="#fff">talk to them</text></g><g data-act="leave" data-person="5" data-quarter="4" role="button" tabindex="0"><rect x="899" y="252" width="156" height="16" rx="5" fill="#fff" stroke="#ddd"/><text x="977" y="263.4" font-size="9.5" font-weight="600" text-anchor="middle" fill="#667">leave it</text></g></svg>