<svg xmlns="http://www.w3.org/2000/svg" data-field="timeline" data-direction="field" data-intent="live-wide" data-field-palette="ocean" data-font="Chapter" data-font-floor="14" data-min-readable-scale="1" data-domain-lo="20635" data-domain-hi="20788" width="1442" height="620" viewBox="0 0 1442 620" font-family="DM Sans"><title>Timeline</title><rect x="0" y="0" width="1442" height="620" fill="#F6F3ED"/><text x="32" y="36" font-size="14" fill="#686B65">Timeline / Field</text><text x="32" y="114" font-size="60" fill="#171914" font-family="Instrument Serif" font-weight="400">Milestone timeline</text><text x="32" y="172" font-size="14" fill="#686B65" font-family="DM Sans" font-weight="400">Compared with AUGUST REVIEW</text><text x="400" y="208" font-size="14" fill="#686B65">Jul 2026</text><line stroke-dasharray="2 4" x1="400" y1="252" x2="400" y2="491" stroke="#c9c7c2" stroke-width="1"/><text x="604.64" y="208" font-size="14" fill="#686B65">Aug</text><line stroke-dasharray="2 4" x1="604.64" y1="252" x2="604.64" y2="491" stroke="#c9c7c2" stroke-width="1"/><text x="809.28" y="208" font-size="14" fill="#686B65">Sep</text><line stroke-dasharray="2 4" x1="809.28" y1="252" x2="809.28" y2="491" stroke="#c9c7c2" stroke-width="1"/><text x="1007.32" y="208" font-size="14" fill="#686B65">Oct</text><line stroke-dasharray="2 4" x1="1007.32" y1="252" x2="1007.32" y2="491" stroke="#c9c7c2" stroke-width="1"/><text x="1211.96" y="208" font-size="14" fill="#686B65">Nov</text><line stroke-dasharray="2 4" x1="1211.96" y1="252" x2="1211.96" y2="491" stroke="#c9c7c2" stroke-width="1"/><line data-today="" x1="433.01" y1="240" x2="433.01" y2="491" stroke="#1F4FD8" stroke-width="1"/><text x="438.01" y="232" font-size="14" fill="#1F4FD8">Today · 6 Jul</text><rect data-lane="Lane" x="32" y="252" width="1378" height="44" fill="#e6e7eb"/><line x1="32" y1="252" x2="1410" y2="252" stroke="#c9c7c2" stroke-width="1"/><line x1="32" y1="296" x2="1410" y2="296" stroke="#c9c7c2" stroke-width="1"/><text x="44" y="276" font-size="14" fill="#686B65" font-family="DM Sans" font-weight="600">LANE</text><g data-field-item="lane|existing" data-field-timing="forecast" data-field-state="forecast" data-field-p50-day="2026-08-15" data-field-p90-day="2026-09-15" data-source-line="0"><rect stroke="none" x="32" y="296" width="1378" height="76" fill="transparent"/><text x="40" y="327" font-size="17" fill="#171914" font-family="DM Sans" font-weight="500" pointer-events="none">Existing</text><text x="40" y="351" font-size="14" fill="#686B65" font-family="DM Sans" font-weight="400" pointer-events="none">Finish Aug 2026 – Sep 2026</text><g pointer-events="none"><line data-ms="whisker" stroke-width="2" width="204.64" x1="697.06" y1="334" x2="901.7" y2="334" stroke="#1F4FD8"/><line data-ms="p90" stroke-width="1.5" x1="901.7" y1="327" x2="901.7" y2="341" stroke="#1F4FD8"/><circle data-ms="p50" data-mskey="lane|existing" data-next="" cx="697.06" cy="334" r="4.5" fill="#1F4FD8"/></g><line x1="32" y1="372" x2="1410" y2="372" stroke="#c9c7c2" stroke-width="1"/></g><g data-field-item="lane|aaaaaaaaaaaaaaaaaaaaaaaaaaaaaaaaaaaaaaaaaaaaaaaaaaaaaaaaaaaaaaaaaaaaaaaaaaaaaaaa" data-field-timing="forecast" data-field-state="forecast" data-field-p50-day="2026-10-15" data-field-p90-day="2026-11-15" data-source-line="1"><rect stroke="none" x="32" y="372" width="1378" height="119" fill="transparent"/><text x="40" y="403" font-size="17" fill="#171914" font-family="DM Sans" font-weight="500" pointer-events="none">AAAAAAAAAAAAAAAAAAAAAAAAAAAAAAAAAAAAAAAAA</text><text x="40" y="425" font-size="17" fill="#171914" font-family="DM Sans" font-weight="500" pointer-events="none">AAAAAAAAAAAAAAAAAAAAAAAAAAAAAAAAAAAAAAA</text><text x="40" y="449" font-size="14" fill="#686B65" font-family="DM Sans" font-weight="400" pointer-events="none">Finish Oct 2026 – Nov 2026</text><text x="40" y="470" font-size="14" fill="#686B65" font-family="DM Sans" font-weight="400" pointer-events="none">NEW</text><g pointer-events="none"><line data-ms="whisker" stroke-width="2" width="204.64" x1="1099.74" y1="431.5" x2="1304.38" y2="431.5" stroke="#1F4FD8"/><line data-ms="p90" stroke-width="1.5" x1="1304.38" y1="424.5" x2="1304.38" y2="438.5" stroke="#1F4FD8"/><circle data-ms="p50" data-mskey="lane|aaaaaaaaaaaaaaaaaaaaaaaaaaaaaaaaaaaaaaaaaaaaaaaaaaaaaaaaaaaaaaaaaaaaaaaaaaaaaaaa" cx="1099.74" cy="431.5" r="4.5" fill="#1F4FD8"/></g><line x1="32" y1="491" x2="1410" y2="491" stroke="#c9c7c2" stroke-width="1"/></g><circle cx="36" cy="518" r="4" fill="#1F4FD8"/><text x="54" y="523" font-size="14" fill="#686B65">P50 finish</text><line x1="140" y1="518" x2="153" y2="518" stroke="#1F4FD8" stroke-width="1"/><line x1="153" y1="512" x2="153" y2="524" stroke="#1F4FD8" stroke-width="1"/><text x="162" y="523" font-size="14" fill="#686B65">P90 finish</text></svg>