<svg xmlns="http://www.w3.org/2000/svg" data-field="timeline" data-direction="field" data-intent="live-wide" data-field-palette="ocean" data-font="Chapter" data-font-floor="14" data-min-readable-scale="1" data-domain-lo="20635" data-domain-hi="20788" width="1442" height="620" viewBox="0 0 1442 620" font-family="DM Sans"><title>Q3 launch</title><rect x="0" y="0" width="1442" height="620" fill="#F6F3ED"/><text x="32" y="36" font-size="14" fill="#686B65">Timeline / Field</text><text x="32" y="114" font-size="60" fill="#171914" font-family="Instrument Serif" font-weight="400">Q3 launch</text><text x="400" y="172" font-size="14" fill="#686B65">Jul 2026</text><line stroke-dasharray="2 4" x1="400" y1="216" x2="400" y2="433" stroke="#c9c7c2" stroke-width="1"/><text x="604.64" y="172" font-size="14" fill="#686B65">Aug</text><line stroke-dasharray="2 4" x1="604.64" y1="216" x2="604.64" y2="433" stroke="#c9c7c2" stroke-width="1"/><text x="809.28" y="172" font-size="14" fill="#686B65">Sep</text><line stroke-dasharray="2 4" x1="809.28" y1="216" x2="809.28" y2="433" stroke="#c9c7c2" stroke-width="1"/><text x="1007.32" y="172" font-size="14" fill="#686B65">Oct</text><line stroke-dasharray="2 4" x1="1007.32" y1="216" x2="1007.32" y2="433" stroke="#c9c7c2" stroke-width="1"/><text x="1211.96" y="172" font-size="14" fill="#686B65">Nov</text><line stroke-dasharray="2 4" x1="1211.96" y1="216" x2="1211.96" y2="433" stroke="#c9c7c2" stroke-width="1"/><line data-today="" x1="433.01" y1="204" x2="433.01" y2="433" stroke="#1F4FD8" stroke-width="1"/><text x="438.01" y="196" font-size="14" fill="#1F4FD8">Today · 6 Jul</text><rect data-lane="App" x="32" y="216" width="1378" height="44" fill="#e6e7eb"/><line x1="32" y1="216" x2="1410" y2="216" stroke="#c9c7c2" stroke-width="1"/><line x1="32" y1="260" x2="1410" y2="260" stroke="#c9c7c2" stroke-width="1"/><text x="44" y="240" font-size="14" fill="#686B65" font-family="DM Sans" font-weight="600">APP</text><g data-field-item="app|feature freeze" data-field-timing="forecast" data-field-state="forecast" data-field-p50-day="2026-08-14" data-field-p90-day="2026-08-28" data-source-line="1"><rect stroke="none" x="32" y="260" width="1378" height="76" fill="transparent"/><text x="40" y="291" font-size="17" fill="#171914" font-family="DM Sans" font-weight="500" pointer-events="none">Feature freeze</text><text x="40" y="315" font-size="14" fill="#686B65" font-family="DM Sans" font-weight="400" pointer-events="none">Finish 14 Aug 2026 – 28 Aug 2026</text><g pointer-events="none"><line data-ms="whisker" stroke-width="2" width="92.42" x1="690.46" y1="298" x2="782.88" y2="298" stroke="#1F4FD8"/><line data-ms="p90" stroke-width="1.5" x1="782.88" y1="291" x2="782.88" y2="305" stroke="#1F4FD8"/><circle data-ms="p50" data-mskey="app|feature freeze" data-next="" cx="690.46" cy="298" r="4.5" fill="#1F4FD8"/></g><line x1="32" y1="336" x2="1410" y2="336" stroke="#c9c7c2" stroke-width="1"/></g><g data-field-item="app|store review passed" data-field-timing="forecast" data-field-state="forecast" data-field-p50-day="2026-10-15" data-field-p90-day="2026-11-15" data-source-line="2"><rect stroke="none" x="32" y="336" width="1378" height="97" fill="transparent"/><text x="40" y="367" font-size="17" fill="#171914" font-family="DM Sans" font-weight="500" pointer-events="none">Store review passed</text><text x="40" y="391" font-size="14" fill="#686B65" font-family="DM Sans" font-weight="400" pointer-events="none">Finish 15 Oct 2026 – 15 Nov 2026</text><text x="40" y="412" font-size="14" fill="#686B65" font-family="DM Sans" font-weight="400" pointer-events="none" data-field-note="" aria-label="Note: review times vary wildly">review times vary wildly</text><g pointer-events="none"><line data-ms="whisker" stroke-width="2" width="204.64" x1="1099.74" y1="384.5" x2="1304.38" y2="384.5" stroke="#1F4FD8"/><line data-ms="p90" stroke-width="1.5" x1="1304.38" y1="377.5" x2="1304.38" y2="391.5" stroke="#1F4FD8"/><circle data-ms="p50" data-mskey="app|store review passed" cx="1099.74" cy="384.5" r="4.5" fill="#1F4FD8"/></g><line x1="32" y1="433" x2="1410" y2="433" stroke="#c9c7c2" stroke-width="1"/></g><circle cx="36" cy="460" r="4" fill="#1F4FD8"/><text x="54" y="465" font-size="14" fill="#686B65">P50 finish</text><line x1="140" y1="460" x2="153" y2="460" stroke="#1F4FD8" stroke-width="1"/><line x1="153" y1="454" x2="153" y2="466" stroke="#1F4FD8" stroke-width="1"/><text x="162" y="465" font-size="14" fill="#686B65">P90 finish</text></svg>