<svg xmlns="http://www.w3.org/2000/svg" data-narrow="" width="390" height="579" viewBox="0 0 390 579" font-family="-apple-system,BlinkMacSystemFont,'Segoe UI',Roboto,sans-serif"><rect width="390" height="579" fill="#f7f8f6"/><text x="16" y="30" font-family="Charter,Georgia,serif" font-size="18" font-weight="700" fill="#222">Habitat platform</text><text x="16" y="48" font-size="11" fill="#667">4 components · 4 dependencies · 1 unplaced</text><rect x="16" y="72" width="358" height="34" rx="17" fill="#fff" stroke="#222" stroke-width="1.5"/><text x="195" y="93.5" text-anchor="middle" font-size="13.5" font-weight="600" fill="#222" data-edit="anchor" data-line="1" data-raw="Habit tracking" tabindex="0" role="button" aria-label="Rename anchor: Habit tracking">Habit tracking</text><text x="195" y="116" text-anchor="middle" font-size="11" fill="#667">needs Streak engine</text><rect x="16" y="146" width="358" height="74" rx="12" fill="#5E9E6F1F" stroke="#5E9E6F" stroke-width="1.4"/><text x="30" y="169" font-size="14" font-weight="600" fill="#5E9E6F" data-edit="name" data-line="2" data-raw="Streak engine" tabindex="0" role="button" aria-label="Rename component: Streak engine">Streak engine</text><text x="360" y="169" text-anchor="end" font-size="10.5" font-weight="600" letter-spacing=".07em" fill="#5E9E6F">CUSTOM</text><g data-drag="evo" data-name="Streak engine" data-line="2" data-strip=""><rect x="30" y="180" width="82.5" height="8" fill="#4C8DAE2E"/><rect x="112.5" y="180" width="82.5" height="8" fill="#5E9E6F2E"/><rect x="195" y="180" width="82.5" height="8" fill="#B5885A2E"/><rect x="277.5" y="180" width="82.5" height="8" fill="#8B7BB82E"/><rect data-track="" data-x0="30" data-w="330" x="30" y="180" width="330" height="8" rx="4" fill="#f7f8f6" fill-opacity="0"/><circle data-dot="" cx="153.75" cy="184" r="7" fill="#5E9E6F" stroke="#fff" stroke-width="1.5"/><rect x="16" y="172" width="358" height="44" fill="#f7f8f6" fill-opacity="0"/></g><text x="30" y="202" font-size="11" fill="#667">needs Notification service · User DB</text><rect x="16" y="242" width="358" height="74" rx="12" fill="#B5885A1F" stroke="#B5885A" stroke-width="1.4"/><text x="30" y="265" font-size="14" font-weight="600" fill="#B5885A" data-edit="name" data-line="3" data-raw="Notification service" tabindex="0" role="button" aria-label="Rename component: Notification service">Notification service</text><text x="360" y="265" text-anchor="end" font-size="10.5" font-weight="600" letter-spacing=".07em" fill="#B5885A">PRODUCT</text><g data-drag="evo" data-name="Notification service" data-line="3" data-strip=""><rect x="30" y="276" width="82.5" height="8" fill="#4C8DAE2E"/><rect x="112.5" y="276" width="82.5" height="8" fill="#5E9E6F2E"/><rect x="195" y="276" width="82.5" height="8" fill="#B5885A2E"/><rect x="277.5" y="276" width="82.5" height="8" fill="#8B7BB82E"/><rect data-track="" data-x0="30" data-w="330" x="30" y="276" width="330" height="8" rx="4" fill="#f7f8f6" fill-opacity="0"/><circle data-dot="" cx="236.25" cy="280" r="7" fill="#B5885A" stroke="#fff" stroke-width="1.5"/><rect x="16" y="268" width="358" height="44" fill="#f7f8f6" fill-opacity="0"/></g><text x="30" y="298" font-size="11" fill="#667">needs Push gateway</text><rect x="16" y="324" width="358" height="58" rx="12" fill="#8B7BB81F" stroke="#8B7BB8" stroke-width="1.4"/><text x="30" y="347" font-size="14" font-weight="600" fill="#8B7BB8" data-edit="name" data-line="4" data-raw="User DB" tabindex="0" role="button" aria-label="Rename component: User DB">User DB</text><text x="360" y="347" text-anchor="end" font-size="10.5" font-weight="600" letter-spacing=".07em" fill="#8B7BB8">COMMODITY</text><g data-drag="evo" data-name="User DB" data-line="4" data-strip=""><rect x="30" y="358" width="82.5" height="8" fill="#4C8DAE2E"/><rect x="112.5" y="358" width="82.5" height="8" fill="#5E9E6F2E"/><rect x="195" y="358" width="82.5" height="8" fill="#B5885A2E"/><rect x="277.5" y="358" width="82.5" height="8" fill="#8B7BB82E"/><rect data-track="" data-x0="30" data-w="330" x="30" y="358" width="330" height="8" rx="4" fill="#f7f8f6" fill-opacity="0"/><circle data-dot="" cx="318.75" cy="362" r="7" fill="#8B7BB8" stroke="#fff" stroke-width="1.5"/><rect x="16" y="350" width="358" height="44" fill="#f7f8f6" fill-opacity="0"/></g><rect x="16" y="404" width="358" height="74" rx="12" fill="none" stroke="#667" stroke-width="1.4" stroke-dasharray="5 4"/><text x="30" y="427" font-size="14" font-weight="600" fill="#667" data-edit="name" data-line="5" data-raw="Push gateway" tabindex="0" role="button" aria-label="Rename component: Push gateway">Push gateway</text><text x="360" y="427" text-anchor="end" font-size="10.5" font-weight="600" letter-spacing=".07em" fill="#667">UNPLACED</text><g data-drag="evo" data-name="Push gateway" data-line="5" data-strip=""><rect x="30" y="438" width="82.5" height="8" fill="#4C8DAE2E"/><rect x="112.5" y="438" width="82.5" height="8" fill="#5E9E6F2E"/><rect x="195" y="438" width="82.5" height="8" fill="#B5885A2E"/><rect x="277.5" y="438" width="82.5" height="8" fill="#8B7BB82E"/><rect data-track="" data-x0="30" data-w="330" x="30" y="438" width="330" height="8" rx="4" fill="#f7f8f6" fill-opacity="0"/><circle data-dot="" cx="30" cy="442" r="7" fill="#fff" stroke="#667" stroke-width="1.5" stroke-dasharray="2 2"/><rect x="16" y="430" width="358" height="44" fill="#f7f8f6" fill-opacity="0"/></g><text x="30" y="460" font-size="11" fill="#667">unplaced — tap the strip to place it</text><line x1="16" y1="498" x2="374" y2="498" stroke="#ddd"/><text x="16" y="524" font-size="13" font-weight="600" fill="#222">Mostly product and commodity — an execution map;</text><text x="16" y="542" font-size="13" font-weight="600" fill="#222">the argument is sequencing, not invention.</text><text x="16" y="559" font-size="11.5" fill="#667">1 unplaced — tap its strip to place it.</text></svg>